# xmcd CD database file
#
# Track frame offsets:
#	150
#	37875
#	86590
#	107915
#	134905
#	181912
#
# Disc length: 2960 seconds
#
# Revision: 0
# Processed by: cddbd v1.4PL0 Copyright (c) Steve Scherf et al.
# Submitted via: CDex 1.51
#
DISCID=4d0b8e06
DTITLE=Bob Ostertag - Fear No Love
DYEAR=1994
DGENRE=Jazz
TTITLE0=Scared of Love
TTITLE1=The Man in the Blue Slip
TTITLE2=Eat Dust
TTITLE3=Not Your Girl
TTITLE4=Right Like a Railroad
TTITLE5=Positive
EXTD=YEAR: 1994
EXTT0=
EXTT1=
EXTT2=
EXTT3=
EXTT4=
EXTT5=
PLAYORDER=
